<mxfile host="app.diagrams.net" modified="2023-10-27T01:46:23.409Z" agent="Mozilla/5.0 (Macintosh; Intel Mac OS X 10_15_7) AppleWebKit/537.36 (KHTML, like Gecko) Chrome/117.0.0.0 Safari/537.36" version="22.0.8" etag="3WQ-V350jYx_grCyeCJi" type="github">
  <diagram name="Page-1" id="Vn4nFfsF8cM8pAULTq9Z">
    <mxGraphModel>
      <root>
        <mxCell id="0" />
        <mxCell id="1" parent="0" />
      </root>
    </mxGraphModel>
  </diagram>
</mxfile>
